<?xml version="1.0" standalone="no"?>
<!DOCTYPE svg PUBLIC "-//W3C//DTD SVG 20010904//EN"
 "http://www.w3.org/TR/2001/REC-SVG-20010904/DTD/svg10.dtd">
<svg version="1.0" xmlns="http://www.w3.org/2000/svg"
 width="24.000000pt" height="24.000000pt" viewBox="0 0 24.000000 24.000000"
 preserveAspectRatio="xMidYMid meet">

<g transform="translate(0.000000,24.000000) scale(0.100000,-0.100000)"
fill="#000000" stroke="none">
<path d="M97 234 c-4 -4 -7 -31 -7 -61 0 -29 -4 -53 -10 -53 -5 0 -10 14 -10
31 0 24 -4 30 -17 27 -20 -4 -28 -37 -19 -74 5 -17 13 -24 31 -24 22 0 25 -4
25 -34 0 -24 -5 -36 -17 -39 -10 -3 11 -5 47 -5 36 0 57 2 48 5 -14 3 -18 15
-18 52 0 43 2 48 31 58 27 10 30 16 27 45 -3 38 -38 55 -38 19 0 -37 -19 -22
-22 17 -2 28 -8 38 -23 40 -12 2 -24 0 -28 -4z m41 -57 c3 -29 7 -37 23 -37
14 0 19 7 19 27 0 20 3 24 11 16 18 -18 1 -53 -26 -53 -22 0 -24 -4 -27 -57
-2 -44 -7 -58 -18 -58 -10 0 -16 12 -18 38 -3 31 -7 37 -27 37 -12 0 -26 7
-29 16 -9 24 -7 54 4 54 6 0 10 -11 10 -25 0 -18 5 -25 20 -25 17 0 20 7 20
48 0 27 3 52 7 56 14 14 28 -2 31 -37z"/>
</g>
</svg>
