<?xml version="1.0" standalone="no"?>
<!DOCTYPE svg PUBLIC "-//W3C//DTD SVG 20010904//EN"
 "http://www.w3.org/TR/2001/REC-SVG-20010904/DTD/svg10.dtd">
<svg version="1.0" xmlns="http://www.w3.org/2000/svg"
 width="24.000000pt" height="24.000000pt" viewBox="0 0 24.000000 24.000000"
 preserveAspectRatio="xMidYMid meet">

<g transform="translate(0.000000,24.000000) scale(0.100000,-0.100000)"
fill="#000000" stroke="none">
<path d="M0 205 c0 -54 46 -101 79 -81 6 4 13 -3 16 -16 3 -13 9 -41 14 -63 5
-22 9 -31 10 -19 1 12 6 34 11 50 9 26 15 29 43 26 41 -5 57 13 64 69 l6 42
-39 -7 c-49 -10 -77 -34 -71 -62 2 -12 -2 -32 -8 -44 -12 -22 -12 -22 -18 10
-4 18 -4 36 -1 42 13 21 -7 56 -37 67 -51 18 -69 14 -69 -14z m88 -7 c14 -12
16 -48 2 -48 -5 0 -10 4 -10 9 0 5 -8 12 -17 15 -16 6 -16 6 0 -12 22 -24 21
-32 -2 -32 -24 0 -39 19 -47 60 l-7 32 34 -7 c19 -4 40 -12 47 -17z m142 -21
c0 -31 -27 -67 -51 -67 -24 0 -24 8 -1 34 17 20 17 20 -10 3 -21 -13 -28 -14
-28 -4 0 22 23 45 50 50 14 2 28 5 33 6 4 0 7 -9 7 -22z"/>
</g>
</svg>
